<?xml version="1.0" encoding="UTF-8" standalone="no"?>
<!DOCTYPE svg PUBLIC "-//W3C//DTD SVG 1.1//EN" "http://www.w3.org/Graphics/SVG/1.1/DTD/svg11.dtd">
<svg width="100%" height="100%" viewBox="0 0 100 100" version="1.1" xmlns="http://www.w3.org/2000/svg" xmlns:xlink="http://www.w3.org/1999/xlink" xml:space="preserve" xmlns:serif="http://www.serif.com/" style="fill-rule:evenodd;clip-rule:evenodd;stroke-linejoin:round;stroke-miterlimit:2;">
    <g id="Background">
        <g transform="matrix(1.07259,0,0,1.05713,-6.90563,-5.43981)">
            <path d="M95.132,30.747C95.132,18.939 85.682,9.351 74.044,9.351L31.869,9.351C20.23,9.351 10.781,18.939 10.781,30.747L10.781,73.823C10.781,85.632 20.23,95.219 31.869,95.219L74.044,95.219C85.682,95.219 95.132,85.632 95.132,73.823L95.132,30.747Z" style="fill:rgb(13,17,23);"/>
        </g>
        <g transform="matrix(0.71659,0,0,0.71659,-459.844,-280.868)">
            <path d="M770.641,500.935C770.641,511.933 761.693,520.88 750.696,520.88L672.278,520.88C661.28,520.88 652.333,511.933 652.333,500.935L652.333,422.517C652.333,411.519 661.28,402.571 672.278,402.571L750.696,402.571C761.693,402.571 770.641,411.519 770.641,422.517L770.641,500.935ZM750.696,397.317L672.278,397.317C658.36,397.317 647.078,408.6 647.078,422.517L647.078,500.935C647.078,514.852 658.36,526.134 672.278,526.134L750.696,526.134C764.613,526.134 775.895,514.852 775.895,500.935L775.895,422.517C775.895,408.6 764.613,397.317 750.696,397.317Z" style="fill:rgb(201,209,217);fill-rule:nonzero;"/>
        </g>
    </g>
    <g>
        <g>
            <g transform="matrix(0.693818,0,0,0.693818,-978.804,-270.521)">
                <path d="M1454.83,476.91L1463.96,476.91C1469.44,476.91 1471.92,474.623 1471.92,470.378C1471.92,466.605 1469.48,464.196 1463.91,464.196L1454.83,464.196L1454.83,476.91ZM1464.19,456.376C1469,456.376 1470.99,454.216 1470.99,450.927C1470.99,447.496 1468.38,445.726 1464.48,445.726L1454.83,445.726L1454.83,456.376L1464.19,456.376ZM1444.89,437.905L1465.35,437.905C1476.66,437.905 1480.96,443.804 1480.96,449.887C1480.96,455.165 1478.16,458.593 1475,460.039C1478.15,461.229 1482.3,464.557 1482.3,470.713C1482.3,478.727 1476,484.73 1466.04,484.73L1444.89,484.73L1444.89,437.905Z" style="fill:rgb(201,209,217);fill-rule:nonzero;"/>
            </g>
            <g transform="matrix(0.693818,0,0,0.693818,-978.804,-270.521)">
                <path d="M1510.69,463.257C1510.62,459.164 1508.98,455.72 1504.24,455.72C1499.58,455.72 1497.7,458.936 1497.31,463.257L1510.69,463.257ZM1497.11,469.235C1497.11,473.632 1499.32,477.93 1504.16,477.93C1508.22,477.93 1509.37,476.303 1510.3,474.176L1520.04,474.176C1518.79,478.479 1514.95,485.546 1503.91,485.546C1492.33,485.546 1487.31,476.888 1487.31,467.664C1487.31,456.637 1492.96,448.761 1504.26,448.761C1516.33,448.761 1520.44,457.495 1520.44,466.271C1520.44,467.461 1520.44,468.232 1520.31,469.235L1497.11,469.235Z" style="fill:rgb(201,209,217);fill-rule:nonzero;"/>
            </g>
            <g transform="matrix(0.693818,0,0,0.693818,-978.804,-270.521)">
                <rect x="1494.27" y="440.333" width="19.88" height="6.607" style="fill:rgb(201,209,217);fill-rule:nonzero;"/>
            </g>
        </g>
    </g>
</svg>
