<?xml version="1.0" encoding="UTF-8" standalone="no"?>
<!DOCTYPE svg PUBLIC "-//W3C//DTD SVG 1.1//EN" "http://www.w3.org/Graphics/SVG/1.1/DTD/svg11.dtd">
<svg width="100%" height="100%" viewBox="0 0 100 100" version="1.1" xmlns="http://www.w3.org/2000/svg" xmlns:xlink="http://www.w3.org/1999/xlink" xml:space="preserve" xmlns:serif="http://www.serif.com/" style="fill-rule:evenodd;clip-rule:evenodd;stroke-linejoin:round;stroke-miterlimit:2;">
    <g transform="matrix(1.07259,0,0,1.05713,-6.90563,-5.43981)">
        <path d="M95.132,30.747C95.132,18.939 85.682,9.351 74.044,9.351L31.869,9.351C20.23,9.351 10.781,18.939 10.781,30.747L10.781,73.823C10.781,85.632 20.23,95.219 31.869,95.219L74.044,95.219C85.682,95.219 95.132,85.632 95.132,73.823L95.132,30.747Z" style="fill:rgb(13,17,23);"/>
    </g>
    <g transform="matrix(0.92309,0,0,0.92309,3.8455,3.8455)">
        <g transform="matrix(0.776295,0,0,0.776295,-502.324,-308.435)">
            <path d="M770.641,500.935C770.641,511.933 761.693,520.88 750.696,520.88L672.278,520.88C661.28,520.88 652.333,511.933 652.333,500.935L652.333,422.517C652.333,411.519 661.28,402.571 672.278,402.571L750.696,402.571C761.693,402.571 770.641,411.519 770.641,422.517L770.641,500.935ZM750.696,397.317L672.278,397.317C658.36,397.317 647.078,408.6 647.078,422.517L647.078,500.935C647.078,514.852 658.36,526.134 672.278,526.134L750.696,526.134C764.613,526.134 775.895,514.852 775.895,500.935L775.895,422.517C775.895,408.6 764.613,397.317 750.696,397.317Z" style="fill:rgb(201,209,217);fill-rule:nonzero;"/>
        </g>
        <g transform="matrix(0.776295,0,0,0.776295,-502.324,-308.435)">
            <path d="M695.337,431.073C687.34,431.073 680.834,437.579 680.834,445.577L680.834,477.874C680.834,485.872 687.34,492.378 695.337,492.378L727.635,492.378C735.633,492.378 742.139,485.872 742.139,477.874L742.139,445.577C742.139,437.579 735.633,431.073 727.635,431.073L695.337,431.073ZM727.635,498.301L695.337,498.301C684.075,498.301 674.912,489.138 674.912,477.874L674.912,445.577C674.912,434.313 684.075,425.15 695.337,425.15L727.635,425.15C738.898,425.15 748.061,434.313 748.061,445.577L748.061,477.874C748.061,489.138 738.898,498.301 727.635,498.301Z" style="fill:rgb(201,209,217);fill-rule:nonzero;"/>
        </g>
        <g transform="matrix(0.776295,0,0,0.776295,-502.324,-308.435)">
            <path d="M711.487,448.4C704.139,448.4 698.162,454.378 698.162,461.726C698.162,469.073 704.139,475.051 711.487,475.051C718.834,475.051 724.811,469.073 724.811,461.726C724.811,454.378 718.834,448.4 711.487,448.4ZM711.487,480.973C700.874,480.973 692.24,472.339 692.24,461.726C692.24,451.113 700.874,442.479 711.487,442.479C722.099,442.479 730.734,451.113 730.734,461.726C730.734,472.339 722.099,480.973 711.487,480.973Z" style="fill:rgb(201,209,217);fill-rule:nonzero;"/>
        </g>
        <g transform="matrix(0.776295,0,0,0.776295,-502.324,-308.435)">
            <path d="M731.543,444.672C729.891,444.672 728.547,443.328 728.547,441.677C728.547,440.025 729.891,438.682 731.543,438.682C733.194,438.682 734.538,440.025 734.538,441.677C734.538,443.328 733.194,444.672 731.543,444.672Z" style="fill:rgb(201,209,217);fill-rule:nonzero;"/>
        </g>
    </g>
</svg>
