<?xml version="1.0" encoding="UTF-8" standalone="no"?>
<!DOCTYPE svg PUBLIC "-//W3C//DTD SVG 1.1//EN" "http://www.w3.org/Graphics/SVG/1.1/DTD/svg11.dtd">
<svg width="100%" height="100%" viewBox="0 0 100 100" version="1.1" xmlns="http://www.w3.org/2000/svg" xmlns:xlink="http://www.w3.org/1999/xlink" xml:space="preserve" xmlns:serif="http://www.serif.com/" style="fill-rule:evenodd;clip-rule:evenodd;stroke-linejoin:round;stroke-miterlimit:2;">
    <g id="Background">
        <g transform="matrix(1.07259,0,0,1.05713,-6.90563,-5.43981)">
            <path d="M95.132,30.747C95.132,18.939 85.682,9.351 74.044,9.351L31.869,9.351C20.23,9.351 10.781,18.939 10.781,30.747L10.781,73.823C10.781,85.632 20.23,95.219 31.869,95.219L74.044,95.219C85.682,95.219 95.132,85.632 95.132,73.823L95.132,30.747Z" style="fill:rgb(13,17,23);"/>
        </g>
        <g transform="matrix(0.71659,0,0,0.71659,-459.844,-280.868)">
            <path d="M770.641,500.935C770.641,511.933 761.693,520.88 750.696,520.88L672.278,520.88C661.28,520.88 652.333,511.933 652.333,500.935L652.333,422.517C652.333,411.519 661.28,402.571 672.278,402.571L750.696,402.571C761.693,402.571 770.641,411.519 770.641,422.517L770.641,500.935ZM750.696,397.317L672.278,397.317C658.36,397.317 647.078,408.6 647.078,422.517L647.078,500.935C647.078,514.852 658.36,526.134 672.278,526.134L750.696,526.134C764.613,526.134 775.895,514.852 775.895,500.935L775.895,422.517C775.895,408.6 764.613,397.317 750.696,397.317Z" style="fill:rgb(201,209,217);fill-rule:nonzero;"/>
        </g>
    </g>
    <g transform="matrix(0.312967,0,0,0.312967,23.7119,23.705)">
        <path d="M83.996,0.277C37.747,0.277 0.253,37.77 0.253,84.019C0.253,130.27 37.747,167.76 83.996,167.76C130.25,167.76 167.74,130.27 167.74,84.019C167.74,37.773 130.25,0.281 83.995,0.281L83.996,0.277ZM122.4,121.057C120.9,123.517 117.68,124.297 115.22,122.787C95.558,110.777 70.806,108.057 41.656,114.717C38.847,115.357 36.047,113.597 35.407,110.787C34.764,107.977 36.517,105.177 39.333,104.537C71.233,97.249 98.596,100.387 120.67,113.877C123.13,115.387 123.91,118.597 122.4,121.057ZM132.65,98.255C130.76,101.327 126.74,102.297 123.67,100.407C101.16,86.571 66.847,82.564 40.222,90.646C36.769,91.689 33.122,89.743 32.074,86.296C31.034,82.843 32.981,79.203 36.428,78.153C66.841,68.925 104.65,73.395 130.5,89.28C133.57,91.17 134.54,95.19 132.65,98.256L132.65,98.255ZM133.53,74.511C106.54,58.48 62.01,57.006 36.241,64.827C32.103,66.082 27.727,63.746 26.473,59.608C25.219,55.468 27.553,51.095 31.694,49.837C61.275,40.857 110.45,42.592 141.524,61.039C145.254,63.248 146.474,68.055 144.264,71.772C142.064,75.494 137.244,76.721 133.534,74.511L133.53,74.511Z" style="fill:rgb(201,209,217);fill-rule:nonzero;"/>
    </g>
</svg>
